# xmcd
#
# Track frame offsets:
#	150
#	17697
#	44459
#
# Disc length: 1752 seconds
#
# Revision: 0
# Processed by: cddbd v1.5.1PL0 Copyright (c) Steve Scherf et al.
# Submitted via: dBpowerAMP V4.0
#
DISCID=1c06d603
DTITLE=Akhenation - Single
DYEAR=2001
DGENRE=Rap
TTITLE0=AKH
TTITLE1=Hiera Têchnè
TTITLE2=DATA
EXTD=
EXTT0=
EXTT1=
EXTT2=
PLAYORDER=
